<?xml version="1.0" standalone="no"?>
<!DOCTYPE svg PUBLIC "-//W3C//DTD SVG 20010904//EN"
 "http://www.w3.org/TR/2001/REC-SVG-20010904/DTD/svg10.dtd">
<svg version="1.0" xmlns="http://www.w3.org/2000/svg"
 width="704.000000pt" height="704.000000pt" viewBox="0 0 704.000000 704.000000"
 preserveAspectRatio="xMidYMid meet">
<metadata>
Created by potrace 1.14, written by Peter Selinger 2001-2017
</metadata>
<g transform="translate(0.000000,704.000000) scale(0.100000,-0.100000)"
fill="#000000" stroke="none">
<path d="M3154 7030 c-3 -2 -24 -5 -47 -6 -23 -1 -42 -3 -42 -4 0 -1 -11 -3
-25 -5 -81 -10 -136 -18 -141 -21 -8 -5 -85 -17 -116 -18 -13 -1 -23 -3 -23
-6 0 -3 -8 -7 -17 -8 -21 -2 -57 -10 -60 -12 -2 -2 -11 -3 -20 -5 -10 -1 -25
-5 -33 -8 -16 -7 -66 -18 -87 -19 -7 -1 -13 -5 -13 -9 0 -3 -20 -10 -45 -13
-24 -4 -47 -12 -51 -17 -3 -6 -12 -8 -20 -5 -8 3 -14 1 -14 -4 0 -6 -3 -9 -7
-8 -5 0 -15 -2 -23 -5 -8 -3 -36 -13 -63 -21 -47 -16 -143 -54 -204 -82 -17
-8 -36 -14 -42 -14 -6 0 -11 -5 -11 -11 0 -5 -4 -7 -10 -4 -5 3 -10 1 -10 -4
0 -6 -3 -10 -7 -9 -10 2 -44 -12 -59 -24 -9 -6 -9 -15 0 -33 6 -14 15 -25 19
-25 5 0 6 -4 2 -9 -3 -5 -1 -12 5 -16 6 -4 8 -11 5 -16 -4 -5 -1 -9 5 -9 7 0
10 -7 6 -15 -3 -9 0 -15 10 -15 10 0 14 -6 10 -15 -3 -8 -1 -15 5 -15 6 0 7
-4 4 -10 -3 -5 -1 -10 4 -10 6 0 11 -8 11 -19 0 -10 7 -24 15 -31 9 -7 13 -15
10 -18 -3 -3 5 -17 17 -30 13 -14 17 -22 11 -18 -7 4 -13 2 -13 -3 0 -6 7 -11
16 -11 11 0 15 -6 11 -19 -3 -12 1 -22 10 -25 8 -3 11 -10 8 -16 -3 -5 -1 -10
4 -10 6 0 11 -7 11 -15 0 -8 4 -15 9 -15 6 0 8 -9 6 -19 -2 -11 3 -22 11 -25
8 -3 14 -13 14 -21 0 -9 7 -23 15 -32 9 -8 19 -29 22 -45 3 -16 12 -32 19 -35
7 -2 10 -11 7 -19 -3 -8 0 -14 6 -14 6 0 11 -9 11 -20 0 -11 5 -20 10 -20 6 0
10 -7 10 -15 0 -8 5 -15 11 -15 8 0 7 -6 -2 -17 -7 -10 -10 -15 -5 -11 13 11
39 -20 32 -38 -3 -8 -2 -13 2 -10 5 3 19 -19 33 -49 13 -30 28 -55 32 -55 5 0
5 -5 1 -11 -3 -6 -1 -15 5 -19 7 -4 13 -16 14 -28 0 -11 5 -18 11 -15 5 4 7
-3 4 -15 -4 -13 -2 -20 6 -19 6 1 10 -6 10 -15 -1 -10 2 -18 7 -18 5 0 9 -7 9
-16 0 -9 5 -12 12 -8 6 4 8 3 4 -4 -3 -6 -1 -14 5 -17 5 -4 8 -13 5 -20 -2 -7
2 -16 9 -19 8 -3 12 -12 9 -19 -3 -8 2 -17 10 -20 9 -4 16 -14 16 -23 0 -9 9
-27 20 -41 11 -14 20 -34 20 -45 0 -12 4 -16 12 -12 7 4 8 3 4 -5 -4 -6 -2
-19 5 -27 7 -9 14 -23 15 -31 2 -8 10 -23 19 -34 10 -10 15 -25 11 -34 -3 -9
-2 -14 3 -11 13 8 62 -100 55 -121 -4 -13 -3 -15 4 -5 7 10 14 3 27 -30 10
-24 17 -47 16 -52 -1 -5 5 -4 13 3 9 8 25 11 36 8 11 -3 18 -1 14 4 -3 5 2 9
10 9 9 0 16 3 16 8 0 4 15 7 34 7 24 0 32 -4 28 -14 -4 -11 -1 -11 16 -2 18 9
25 8 42 -9 11 -11 20 -15 20 -10 0 6 9 10 20 10 11 0 20 -4 20 -10 0 -5 10
-10 23 -9 35 0 127 -23 127 -32 0 -5 5 -9 11 -9 5 0 7 6 3 13 -6 9 -4 9 7 1 8
-7 30 -15 49 -19 19 -4 41 -12 49 -19 12 -9 13 -8 7 4 -4 8 0 6 8 -4 9 -11 16
-14 16 -8 0 7 5 12 11 12 5 0 7 -6 3 -12 -5 -8 0 -7 11 2 11 9 16 10 11 3 -5
-9 1 -13 19 -13 l26 0 -4 83 c-2 46 -7 88 -10 94 -4 7 -3 14 3 18 6 4 7 12 3
18 -4 6 -6 24 -5 40 2 21 -1 26 -10 21 -10 -6 -11 -5 -1 7 9 11 10 25 3 47 -5
21 -5 32 1 32 6 0 7 6 2 13 -12 20 -12 37 0 37 8 0 7 3 -1 9 -9 5 -12 22 -9
50 2 23 1 44 -4 46 -9 6 -7 25 5 44 6 10 5 12 -2 7 -9 -5 -12 11 -13 56 -1 35
-1 69 0 75 1 7 -3 22 -10 34 -8 15 -8 19 0 15 6 -4 11 -3 11 3 0 5 -5 13 -10
16 -7 4 -7 12 0 24 5 10 7 21 3 24 -11 12 -12 122 0 130 8 6 7 7 -4 4 -13 -4
-15 5 -14 57 1 33 -3 67 -8 74 -6 8 -5 12 3 12 10 0 10 3 0 15 -10 12 -10 18
1 32 10 11 10 14 2 9 -10 -5 -13 9 -14 61 -1 70 -5 138 -9 138 -1 0 -3 32 -5
70 -5 94 -14 224 -19 258 -2 15 2 27 8 27 8 0 8 2 0 8 -10 7 -16 65 -17 165
-1 26 -4 47 -8 47 -4 0 -6 11 -5 25 0 14 6 25 11 25 6 0 4 4 -3 9 -7 4 -12 12
-11 17 7 41 -1 50 -47 50 -25 -1 -48 -3 -50 -6z"/>
<path d="M3725 7030 c3 -5 3 -10 -2 -10 -4 0 -8 -38 -8 -85 0 -47 -3 -85 -7
-85 -5 0 -8 -5 -8 -11 0 -5 6 -7 13 -3 9 6 9 4 1 -7 -6 -8 -11 -31 -10 -52 1
-21 -2 -41 -6 -43 -5 -3 -4 -12 3 -20 6 -8 7 -14 2 -14 -5 0 -10 -39 -11 -87
-2 -51 -7 -90 -14 -92 -7 -2 -6 -6 2 -11 9 -6 9 -12 0 -30 -9 -17 -9 -21 0
-15 9 5 10 2 3 -11 -5 -11 -9 -43 -9 -71 1 -29 -1 -53 -4 -53 -3 0 -6 -28 -7
-63 -1 -34 -4 -89 -7 -121 -3 -33 -6 -85 -7 -118 -1 -34 -7 -58 -13 -58 -6 0
-5 -4 3 -9 10 -6 10 -10 1 -16 -9 -6 -9 -10 1 -16 12 -7 12 -9 0 -9 -10 0 -11
-3 -2 -14 7 -8 8 -17 3 -20 -5 -3 -8 -18 -7 -33 1 -15 -2 -36 -7 -45 -6 -13
-5 -18 4 -18 8 0 9 -3 3 -8 -5 -4 -11 -20 -12 -37 -3 -65 -15 -281 -15 -295
-1 -8 -5 -21 -11 -27 -6 -8 -6 -13 0 -13 5 0 10 -7 10 -15 0 -8 -3 -15 -7 -15
-3 0 -5 -34 -5 -75 0 -41 -2 -75 -6 -75 -8 0 -5 -33 6 -49 5 -10 4 -12 -3 -7
-9 5 -12 -11 -13 -56 -1 -35 -2 -76 -3 -93 -1 -25 3 -31 24 -33 14 -2 32 -9
40 -15 13 -11 13 -10 1 6 -8 9 -11 20 -7 24 3 4 13 -2 21 -13 13 -16 14 -16 9
-2 -7 20 3 25 64 32 24 2 48 9 55 14 7 6 26 9 44 8 17 -1 29 2 26 7 -3 5 5 7
18 5 14 -2 23 2 22 8 -1 7 8 9 22 6 14 -2 22 -9 18 -15 -3 -6 -1 -7 6 -3 6 4
9 11 6 16 -6 10 23 22 35 15 5 -3 12 -1 15 5 5 8 12 7 23 -2 13 -11 14 -11 7
1 -6 11 -2 13 18 9 15 -3 24 -1 21 3 -3 5 3 9 13 10 10 0 26 2 36 4 13 2 17
-1 13 -12 -5 -13 -4 -14 9 -3 8 7 15 8 15 3 0 -5 6 -10 13 -10 6 0 17 -2 22
-3 24 -6 46 1 39 12 -5 7 -2 9 9 5 10 -4 14 -2 12 6 -6 17 50 129 60 120 4 -5
5 -3 1 4 -10 18 32 95 47 86 7 -4 7 0 -2 10 -7 9 -10 17 -5 17 5 0 20 25 34
55 14 30 28 55 32 55 4 0 4 7 1 17 -4 11 -3 14 5 9 7 -4 12 -1 12 9 0 9 7 27
16 40 9 14 13 25 10 25 -4 0 -1 6 6 14 7 8 16 12 19 10 4 -2 7 2 6 9 -1 40 4
59 16 54 7 -3 13 5 14 21 0 13 6 28 13 32 6 4 12 11 13 16 1 5 6 8 10 6 5 -1
6 2 2 7 -8 14 5 62 16 55 5 -3 9 4 9 15 0 12 9 30 20 41 11 11 17 20 14 20 -4
0 -1 6 5 13 6 8 8 17 4 20 -3 4 -1 7 6 7 7 0 10 4 6 9 -3 5 -1 12 5 16 6 4 7
11 4 17 -4 7 -2 8 4 4 8 -5 12 0 12 12 0 11 7 25 15 32 8 7 15 17 15 23 0 6 8
19 18 30 12 15 13 19 2 13 -8 -4 -7 -1 3 7 10 9 17 17 16 19 -7 8 22 69 30 64
5 -3 8 2 7 12 0 9 4 16 10 15 6 -1 10 9 9 22 -2 14 3 26 12 30 9 3 13 8 10 12
-4 3 1 12 11 20 9 8 11 12 5 8 -7 -3 -13 -1 -13 4 0 6 5 11 11 11 5 0 8 4 5 9
-3 5 1 11 9 15 8 3 15 12 15 19 0 25 31 77 42 71 7 -4 8 -2 4 5 -11 17 3 51
22 52 9 0 12 3 6 5 -16 7 37 113 56 114 9 0 11 3 5 8 -13 9 -18 35 -5 27 5 -3
10 -1 10 5 0 6 4 9 9 6 5 -4 7 3 4 14 -3 12 0 20 6 20 7 0 9 5 6 10 -3 6 -2
10 3 10 19 0 7 31 -15 36 -12 4 -23 10 -23 15 0 5 -8 9 -17 9 -10 0 -27 7 -37
15 -10 8 -23 12 -27 9 -5 -3 -9 -1 -9 4 0 6 -10 12 -23 16 -13 3 -45 15 -73
28 -27 12 -55 21 -61 20 -7 -2 -13 2 -13 7 0 6 -7 8 -15 5 -8 -4 -15 -2 -15 4
0 6 -18 13 -40 17 -22 4 -38 11 -35 16 4 5 -1 6 -9 3 -8 -3 -21 -2 -28 2 -7 5
-19 9 -25 10 -7 1 -42 12 -77 23 -36 12 -74 21 -86 21 -11 0 -20 5 -20 12 0 6
-3 9 -6 6 -3 -4 -19 -2 -36 3 -27 7 -65 14 -128 24 -8 1 -22 5 -30 8 -20 8
-158 30 -187 30 -14 0 -20 4 -16 11 4 7 1 6 -9 -1 -8 -7 -17 -11 -19 -8 -15
14 -223 29 -214 15z"/>
<path d="M5393 6473 c-7 -2 -13 -9 -13 -14 0 -5 -16 -31 -36 -59 -20 -27 -33
-50 -28 -50 4 0 -3 -8 -14 -19 -12 -10 -22 -21 -22 -25 0 -6 -61 -100 -80
-123 -5 -7 -10 -17 -10 -23 0 -5 -3 -10 -8 -10 -4 0 -16 -17 -27 -37 -11 -21
-28 -47 -37 -57 -10 -11 -18 -24 -18 -28 0 -5 -8 -18 -18 -29 -11 -10 -25 -32
-33 -47 -8 -15 -20 -33 -26 -40 -7 -7 -13 -17 -13 -22 0 -5 -6 -15 -13 -22 -7
-7 -28 -38 -47 -68 -18 -30 -47 -72 -63 -92 -16 -21 -26 -38 -22 -38 3 0 0 -7
-7 -15 -27 -30 -38 -44 -38 -50 0 -4 -11 -21 -25 -39 -14 -18 -25 -38 -25 -44
0 -7 -3 -12 -7 -12 -5 0 -21 -23 -38 -51 -16 -28 -35 -56 -40 -62 -6 -7 -44
-64 -85 -127 -41 -63 -78 -116 -82 -118 -4 -2 -8 -10 -8 -18 0 -8 -4 -14 -10
-14 -5 0 -10 -5 -10 -11 0 -6 -14 -28 -31 -50 l-30 -38 37 -16 c20 -8 54 -18
76 -21 21 -4 41 -11 44 -15 3 -5 8 -8 12 -6 4 2 15 -4 25 -15 9 -10 15 -18 12
-18 -3 0 3 -9 13 -19 40 -45 68 -90 64 -104 -1 -5 2 -5 8 -2 7 4 14 -2 17 -14
3 -11 9 -19 13 -16 5 3 11 -3 15 -14 3 -10 17 -31 30 -47 13 -15 22 -30 20
-32 -2 -3 7 -13 20 -24 14 -11 25 -25 25 -33 0 -7 7 -15 15 -19 8 -3 15 -10
15 -16 0 -6 5 -17 12 -24 10 -10 17 -10 40 1 15 8 28 19 28 24 0 6 4 8 8 5 5
-3 18 3 29 13 27 25 61 42 66 33 2 -4 2 -1 1 5 -2 7 5 17 16 23 23 13 33 13
25 1 -3 -5 -2 -12 3 -15 4 -2 9 4 9 15 3 30 24 51 46 45 10 -2 16 -2 13 1 -7
8 21 34 42 38 9 1 16 8 15 13 -2 7 4 9 14 5 11 -4 14 -3 9 5 -4 7 -1 12 8 12
9 0 16 5 16 10 0 6 9 10 21 10 11 0 18 4 15 9 -8 13 19 21 33 10 6 -5 9 -6 6
-3 -6 9 14 44 25 44 12 0 79 44 103 67 11 10 23 17 28 16 5 -2 9 2 9 9 0 6 3
8 7 5 3 -4 11 0 18 9 6 9 23 17 37 17 14 1 24 7 22 12 -4 13 65 57 77 49 5 -3
8 0 7 6 -2 7 5 17 15 23 14 10 20 9 28 -3 9 -13 10 -13 6 2 -4 11 10 27 49 52
30 20 54 33 54 29 0 -4 6 1 13 12 8 10 19 15 26 11 7 -4 10 -2 9 5 -2 6 3 14
11 17 9 3 11 0 6 -9 -5 -8 -4 -11 1 -6 5 5 9 14 9 20 0 10 30 31 83 58 12 7
22 17 22 22 0 5 6 4 14 -2 11 -9 14 -8 12 6 0 10 5 17 12 15 7 -1 15 5 18 13
4 8 15 15 25 15 11 0 22 7 25 15 4 8 13 15 21 15 8 0 11 5 7 12 -4 6 -3 8 3 5
6 -4 16 0 23 8 9 11 16 12 25 5 10 -8 13 -7 11 4 0 8 3 15 7 15 5 0 18 11 30
24 12 14 31 28 42 31 11 4 33 17 49 31 l30 24 -59 78 c-32 43 -61 80 -64 83
-3 3 -12 17 -20 32 -8 16 -16 26 -19 24 -2 -3 -19 15 -38 40 -52 68 -83 102
-162 183 -40 40 -81 85 -92 99 -11 13 -20 22 -20 19 0 -4 -15 8 -33 26 -40 38
-135 121 -204 177 -76 62 -258 192 -266 189 -1 0 -8 -3 -14 -6z"/>
<path d="M1530 6434 c-19 -13 -43 -31 -52 -39 -10 -8 -18 -11 -18 -7 0 4 -5
-1 -11 -10 -5 -10 -17 -18 -24 -18 -8 0 -15 -4 -15 -8 0 -5 -28 -29 -62 -54
-65 -47 -113 -88 -199 -170 -27 -25 -49 -44 -49 -41 0 3 -9 -5 -19 -18 -11
-13 -59 -65 -108 -115 -48 -50 -102 -109 -120 -130 -17 -21 -41 -49 -53 -61
-11 -13 -17 -23 -13 -23 4 0 1 -5 -9 -10 -9 -6 -35 -38 -58 -72 -45 -66 -55
-78 -83 -109 -9 -10 -14 -19 -11 -19 4 0 1 -7 -6 -15 -10 -12 -10 -15 0 -15 7
0 10 -6 7 -13 -3 -8 3 -14 16 -14 11 -1 23 -7 27 -13 4 -7 11 -12 16 -13 5 -1
9 -7 9 -14 0 -6 4 -15 9 -20 5 -4 6 -3 2 5 -18 32 61 -7 86 -43 5 -6 8 -6 8 0
0 6 5 3 10 -5 5 -8 14 -15 20 -15 6 0 14 -5 18 -10 4 -6 20 -16 35 -23 15 -7
25 -17 22 -22 -4 -6 -3 -10 2 -9 21 4 34 -2 27 -13 -4 -6 -3 -8 4 -4 6 3 18
-1 26 -10 9 -8 16 -13 16 -10 0 3 16 -6 36 -19 20 -14 41 -25 45 -25 5 0 9 -7
9 -16 0 -8 4 -13 8 -10 11 7 72 -31 72 -44 0 -6 4 -9 9 -6 4 3 19 -3 31 -14
13 -11 26 -20 30 -20 14 0 50 -37 43 -44 -4 -4 -1 -4 8 -1 8 3 26 -3 39 -15
13 -11 27 -20 32 -20 5 0 6 -4 3 -10 -3 -6 1 -7 9 -4 14 5 20 -4 18 -27 -1 -3
5 -6 13 -6 8 0 12 4 9 9 -4 5 3 4 15 -4 12 -7 21 -16 21 -20 0 -5 7 -8 14 -8
20 0 67 -45 58 -55 -4 -5 -1 -5 6 -1 9 5 45 -13 98 -48 46 -31 89 -56 94 -56
6 0 8 -4 5 -10 -3 -5 1 -10 10 -10 8 0 18 -7 21 -15 4 -8 10 -12 15 -9 5 3 9
0 9 -6 0 -6 4 -9 9 -6 5 3 14 -1 21 -9 7 -8 19 -15 26 -15 19 0 18 -10 -3 -27
-16 -13 -15 -13 6 -3 18 10 25 9 32 -1 4 -7 5 -17 2 -23 -3 -5 -1 -6 6 -2 6 4
8 12 5 18 -4 6 5 3 19 -8 15 -10 27 -23 27 -27 0 -5 4 -6 9 -3 5 3 11 -1 15
-9 3 -8 15 -15 27 -15 15 0 19 -4 15 -16 -3 -8 -2 -12 4 -9 13 8 52 -19 42
-30 -4 -4 3 -3 15 4 12 6 28 10 35 9 7 -2 12 3 10 10 -1 8 16 36 38 64 22 28
40 55 40 60 0 6 7 8 14 5 10 -4 13 -1 10 8 -3 8 6 26 20 40 14 14 23 25 20 25
-2 0 13 22 33 49 21 27 51 68 67 90 27 38 78 67 96 56 5 -3 16 2 24 11 9 9 16
11 16 4 0 -7 7 -5 16 4 8 9 19 14 22 12 4 -2 12 2 19 9 10 11 8 19 -7 38 -11
14 -20 29 -20 35 0 5 -9 17 -20 27 -11 10 -20 24 -20 32 0 7 -4 13 -8 13 -5 0
-17 16 -28 35 -10 19 -22 35 -26 35 -5 0 -8 4 -8 9 0 6 -34 59 -75 120 -41 60
-75 115 -75 121 0 6 -4 8 -10 5 -5 -3 -10 -1 -10 5 0 12 -181 283 -192 288 -5
2 -8 10 -8 18 0 8 -5 14 -12 14 -6 0 -9 3 -5 6 3 3 -5 18 -19 32 -13 15 -24
30 -24 34 0 18 -4 24 -22 36 -10 7 -16 18 -13 23 4 5 2 9 -3 9 -5 0 -17 16
-28 35 -10 19 -22 35 -26 35 -5 0 -8 7 -8 15 0 8 -4 15 -8 15 -5 0 -15 12 -23
28 -8 15 -16 29 -19 32 -3 3 -37 52 -75 110 -39 58 -90 135 -115 171 l-46 66
-34 -23z"/>
<path d="M4599 5828 c-5 -18 -6 -38 -1 -34 7 8 12 36 6 36 -2 0 -4 -1 -5 -2z"/>
<path d="M6175 5361 c-3 -5 -2 -12 3 -15 5 -3 9 1 9 9 0 17 -3 19 -12 6z"/>
<path d="M4330 5280 c0 -5 5 -10 11 -10 5 0 7 5 4 10 -3 6 -8 10 -11 10 -2 0
-4 -4 -4 -10z"/>
<path d="M6030 5259 c0 -5 5 -7 10 -4 6 3 10 8 10 11 0 2 -4 4 -10 4 -5 0 -10
-5 -10 -11z"/>
<path d="M5940 5226 c0 -2 7 -7 16 -10 8 -3 12 -2 9 4 -6 10 -25 14 -25 6z"/>
<path d="M6604 5121 c4 -5 -3 -7 -14 -4 -12 3 -20 0 -20 -8 0 -7 -3 -9 -6 -6
-4 4 -19 -2 -34 -13 -16 -11 -31 -20 -35 -20 -3 0 -51 -22 -106 -49 -54 -28
-99 -47 -99 -43 0 4 -4 2 -8 -4 -8 -11 -139 -76 -146 -72 -2 2 -12 -5 -22 -14
-11 -9 -31 -20 -46 -23 -16 -4 -28 -11 -28 -16 0 -5 -9 -9 -20 -9 -11 0 -20
-4 -20 -10 0 -6 -3 -9 -7 -8 -8 2 -103 -42 -113 -52 -3 -3 -14 -6 -25 -8 -11
-2 -26 -11 -32 -20 -7 -9 -13 -12 -13 -7 0 5 -5 4 -12 -3 -7 -7 -20 -12 -30
-12 -10 0 -18 -4 -18 -8 0 -5 -18 -15 -40 -22 -22 -7 -40 -17 -40 -22 0 -5 -4
-7 -9 -4 -5 3 -14 -1 -21 -9 -7 -8 -16 -13 -20 -10 -4 3 -19 -4 -33 -15 -14
-11 -30 -20 -35 -20 -6 0 -70 -30 -143 -67 -74 -37 -136 -67 -139 -68 -16 -3
-206 -100 -212 -109 -4 -6 -8 -8 -8 -4 0 4 -30 -8 -67 -27 -38 -19 -74 -35
-80 -35 -7 0 -13 -4 -13 -10 0 -5 -6 -10 -14 -10 -8 0 -24 -16 -36 -35 -17
-28 -21 -44 -15 -73 4 -20 7 -39 7 -42 0 -3 4 -10 8 -15 5 -6 10 -28 12 -48 1
-20 5 -37 8 -37 3 0 6 -8 7 -17 1 -20 7 -40 16 -63 4 -8 8 -28 9 -45 2 -16 6
-33 11 -36 4 -3 9 -20 10 -37 1 -18 5 -32 8 -32 3 0 5 -12 4 -27 -3 -40 -4
-45 -12 -40 -5 3 -16 -10 -25 -28 -16 -33 -13 -36 22 -22 31 11 69 14 63 4 -4
-6 -1 -7 8 -1 18 11 59 12 83 1 14 -7 16 -6 11 4 -6 9 -3 11 8 6 10 -4 17 -1
17 5 0 7 7 3 16 -8 8 -10 13 -14 10 -8 -3 7 1 14 9 18 8 3 15 0 15 -7 0 -8 4
-6 10 3 6 10 10 11 10 3 0 -7 5 -13 11 -13 5 0 8 4 5 9 -4 5 21 11 54 13 33 1
60 -1 60 -6 0 -5 7 -3 15 4 16 13 39 4 29 -12 -4 -7 -2 -8 5 -4 6 4 8 12 5 18
-5 7 -2 9 8 5 9 -3 20 -1 26 5 8 8 15 8 24 0 8 -6 19 -8 25 -4 16 10 55 8 73
-3 9 -5 11 -4 6 3 -4 7 -2 12 3 12 6 0 11 -6 11 -12 0 -10 2 -10 8 -1 12 19
140 27 160 11 9 -7 13 -8 9 -2 -4 7 0 14 7 17 8 3 16 1 18 -5 3 -7 9 -8 19 -3
8 5 56 11 107 13 75 2 93 0 87 -10 -3 -7 0 -6 7 3 9 12 20 14 35 8 14 -5 25
-4 29 3 5 7 2 8 -6 3 -8 -5 -11 -4 -6 3 9 15 38 3 29 -12 -3 -6 4 -2 17 9 14
12 20 14 15 5 -8 -13 -7 -13 8 -1 14 11 17 11 17 0 0 -9 3 -10 8 -4 8 12 32
13 50 2 7 -5 12 -4 12 2 0 6 5 11 11 11 5 0 7 -6 3 -12 -6 -10 -4 -10 7 0 7 6
17 12 22 12 4 0 5 -6 1 -12 -4 -7 2 -5 14 5 25 22 42 15 37 -15 -3 -11 -1 -17
3 -14 4 4 8 12 8 17 1 5 2 13 3 19 1 11 70 8 90 -4 10 -7 12 -6 6 4 -6 10 -3
12 12 8 11 -3 28 -1 37 4 12 7 16 5 16 -9 0 -15 2 -15 9 -4 14 22 40 21 56 -2
8 -12 15 -17 15 -11 0 5 -5 15 -12 22 -9 9 -1 12 38 12 28 0 56 -6 63 -12 7
-7 12 -8 11 -3 -4 20 1 23 34 15 26 -6 33 -5 29 5 -5 14 20 15 33 2 10 -10 26
-9 20 1 -3 5 1 9 9 9 8 0 15 -5 15 -10 0 -6 5 -6 13 0 26 21 105 4 91 -19 -5
-7 -2 -8 5 -3 9 5 10 10 2 18 -21 21 -11 30 11 11 12 -10 18 -14 15 -8 -4 8 4
13 23 16 17 3 27 0 23 -5 -4 -6 -1 -7 8 -1 8 5 19 9 24 9 6 0 9 16 9 35 -3 97
-10 160 -16 160 -4 0 -6 8 -6 18 0 9 -3 44 -7 77 -5 33 -9 70 -9 82 -1 11 -5
19 -9 16 -5 -3 -7 3 -6 13 2 11 0 25 -5 33 -7 11 -6 12 5 6 11 -7 12 -6 2 6
-6 8 -14 30 -16 49 -3 19 -6 35 -7 35 -2 0 -9 36 -12 63 -1 12 -6 22 -10 22
-4 0 -8 14 -8 30 0 17 -4 30 -8 30 -4 0 -8 8 -9 18 -3 40 -8 62 -13 62 -3 0
-7 12 -8 27 -1 15 -7 30 -14 34 -6 4 -8 14 -5 23 4 9 2 16 -4 16 -6 0 -8 4 -4
9 3 5 1 12 -5 16 -5 3 -10 17 -10 31 0 13 -5 24 -11 24 -5 0 -8 4 -4 9 3 5 1
12 -5 16 -5 3 -10 12 -10 19 0 8 -6 29 -14 47 -8 19 -13 36 -13 39 1 3 -6 18
-16 33 -9 15 -15 27 -12 27 3 0 -5 20 -19 44 -13 24 -22 47 -19 50 4 3 1 6 -5
6 -7 0 -12 6 -12 14 0 19 -33 76 -43 76 -5 0 -6 -4 -3 -9z"/>
<path d="M373 5095 c-7 -8 -14 -23 -16 -34 -2 -10 -8 -25 -14 -33 -6 -7 -16
-30 -24 -50 -7 -21 -17 -38 -23 -38 -5 0 -7 -3 -4 -6 3 -3 -9 -43 -28 -89 -19
-47 -34 -92 -34 -100 0 -8 -4 -15 -9 -15 -5 0 -12 -20 -16 -45 -3 -25 -10 -43
-14 -40 -5 2 -9 -5 -9 -18 0 -12 -6 -35 -12 -52 -7 -16 -14 -37 -16 -45 -1 -8
-5 -24 -8 -35 -23 -82 -28 -103 -29 -122 0 -13 -4 -23 -7 -23 -4 0 -7 -6 -7
-12 -1 -27 -15 -103 -21 -113 -3 -5 -7 -23 -8 -40 0 -16 -4 -39 -7 -50 -7 -23
-20 -142 -19 -168 0 -11 -4 -15 -11 -10 -7 4 -6 0 2 -10 7 -9 10 -17 5 -17 -5
0 -10 -25 -11 -55 -2 -49 0 -55 18 -55 10 0 19 -5 19 -11 0 -5 4 -7 10 -4 18
11 51 14 45 5 -4 -6 7 -7 26 -3 28 5 31 4 25 -12 -5 -14 -4 -16 7 -7 8 7 17 9
20 5 4 -3 7 0 7 8 0 11 2 11 10 -1 6 -10 10 -11 10 -3 0 8 9 11 23 9 12 -2 21
-9 20 -15 -4 -16 8 -13 24 7 13 15 14 15 8 -8 l-6 -25 15 25 c9 14 15 20 16
13 0 -6 12 -12 28 -12 125 -3 157 -7 154 -19 -1 -8 2 -11 8 -7 6 3 8 11 5 16
-4 5 -1 9 4 9 6 0 11 -5 11 -10 0 -7 6 -7 19 0 11 5 22 6 25 1 3 -5 33 -7 66
-5 39 3 59 0 55 -6 -4 -6 2 -7 17 -1 13 4 32 6 43 4 11 -2 46 -5 77 -7 32 -1
61 -5 65 -9 9 -10 25 -9 19 1 -3 5 1 9 9 9 8 0 12 -4 10 -8 -8 -12 22 -18 34
-6 6 6 11 7 11 2 0 -6 48 -10 113 -9 105 0 144 -7 132 -26 -3 -5 -1 -11 4 -15
6 -3 8 3 6 13 -3 17 2 19 38 18 23 -1 48 -5 56 -10 9 -6 12 -5 8 1 -3 5 9 9
29 8 19 0 39 -7 44 -15 8 -12 10 -12 10 -1 0 11 3 11 17 0 10 -8 14 -9 10 -2
-4 6 -2 15 4 19 7 4 9 3 5 -4 -3 -6 -2 -13 3 -16 5 -4 12 -3 15 2 6 9 47 8 64
-2 7 -4 9 -12 6 -18 -4 -7 -2 -8 5 -4 6 4 9 11 6 16 -3 5 -1 11 5 15 5 3 10 2
10 -3 0 -6 7 -13 16 -16 8 -3 12 -2 9 4 -3 6 1 10 9 10 8 0 14 -6 12 -12 -1
-7 -1 -10 1 -5 7 12 33 8 33 -5 0 -9 2 -10 8 -2 8 13 146 19 138 6 -3 -5 1 -9
9 -9 8 0 15 4 15 8 0 4 8 6 18 4 9 -1 16 -8 14 -16 -2 -9 0 -10 10 -2 16 13
48 8 60 -9 8 -10 9 -9 5 3 -4 13 3 15 46 13 29 -1 66 -6 82 -10 l30 -7 -18 24
c-31 43 -37 69 -29 117 6 39 11 47 27 44 19 -2 19 -2 2 8 -10 7 -14 16 -10 23
4 7 9 23 11 37 2 14 7 27 13 28 5 2 6 8 3 13 -3 6 0 16 6 24 10 12 10 15 -1
15 -11 0 -11 2 1 10 8 5 11 10 6 10 -4 0 -2 10 6 23 8 12 13 32 12 45 -1 12 3
22 7 22 5 0 9 5 9 11 0 5 -6 7 -12 3 -9 -6 -9 -3 0 9 8 9 10 22 6 28 -4 8 -3
9 4 5 16 -10 15 14 -3 56 -11 28 -29 43 -85 71 -38 20 -70 33 -70 29 0 -4 -4
-2 -8 3 -6 8 -133 76 -152 81 -33 10 -50 18 -50 25 0 5 -4 9 -9 9 -15 0 -205
92 -212 103 -3 5 -10 9 -15 9 -5 0 -19 4 -32 9 -13 5 -28 9 -33 9 -6 0 -7 5
-4 10 3 6 1 10 -5 10 -14 0 -81 31 -322 149 -103 51 -190 92 -194 91 -4 -1
-10 2 -13 7 -3 4 -35 22 -71 38 -36 17 -67 33 -68 38 -2 4 -8 5 -13 1 -5 -3
-9 -1 -9 4 0 5 -18 14 -40 21 -22 6 -40 16 -40 21 0 6 -3 9 -7 8 -5 -1 -18 3
-30 10 -13 7 -23 9 -23 5 0 -4 -4 -3 -8 3 -4 6 -34 23 -67 39 -33 15 -63 32
-66 37 -3 5 -8 9 -10 8 -2 -1 -21 5 -43 14 -46 19 -48 19 -63 1z"/>
<path d="M5776 5093 c-6 -14 -5 -15 5 -6 7 7 10 15 7 18 -3 3 -9 -2 -12 -12z"/>
<path d="M2835 5089 c-4 -6 -5 -12 -2 -15 2 -3 7 2 10 11 7 17 1 20 -8 4z"/>
<path d="M5710 5071 c0 -6 4 -13 10 -16 6 -3 7 1 4 9 -7 18 -14 21 -14 7z"/>
<path d="M3035 5040 c3 -5 8 -10 11 -10 2 0 4 5 4 10 0 6 -5 10 -11 10 -5 0
-7 -4 -4 -10z"/>
<path d="M3190 5016 c0 -2 8 -10 18 -17 15 -13 16 -12 3 4 -13 16 -21 21 -21
13z"/>
<path d="M5635 5000 c3 -5 8 -10 11 -10 2 0 4 5 4 10 0 6 -5 10 -11 10 -5 0
-7 -4 -4 -10z"/>
<path d="M3255 4980 c-3 -5 -1 -10 4 -10 6 0 11 5 11 10 0 6 -2 10 -4 10 -3 0
-8 -4 -11 -10z"/>
<path d="M2375 4951 c-3 -5 -2 -12 3 -15 5 -3 9 1 9 9 0 17 -3 19 -12 6z"/>
<path d="M5510 4940 c0 -5 5 -10 11 -10 5 0 7 5 4 10 -3 6 -8 10 -11 10 -2 0
-4 -4 -4 -10z"/>
<path d="M5550 4940 c0 -5 5 -10 11 -10 5 0 7 5 4 10 -3 6 -8 10 -11 10 -2 0
-4 -4 -4 -10z"/>
<path d="M2310 4889 c0 -5 5 -7 10 -4 6 3 10 8 10 11 0 2 -4 4 -10 4 -5 0 -10
-5 -10 -11z"/>
<path d="M5433 4875 c0 -8 4 -12 9 -9 5 3 6 10 3 15 -9 13 -12 11 -12 -6z"/>
<path d="M2050 4551 c0 -6 4 -13 10 -16 6 -3 7 1 4 9 -7 18 -14 21 -14 7z"/>
<path d="M2970 4477 c0 -15 -5 -27 -10 -27 -6 0 -10 -6 -9 -12 2 -13 -8 -60
-18 -88 -4 -8 -5 -20 -4 -27 1 -6 -3 -14 -9 -18 -5 -3 -10 -17 -10 -30 0 -13
-4 -27 -10 -30 -5 -3 -10 -1 -10 4 0 6 -3 10 -7 9 -11 -2 -53 10 -168 48 -66
21 -102 29 -106 22 -4 -6 -14 -8 -23 -5 -8 3 -18 2 -21 -2 -4 -8 -92 -26 -107
-23 -5 1 -8 -3 -8 -9 0 -7 -10 -9 -25 -7 -13 3 -26 2 -27 -3 -2 -4 -16 -10
-33 -13 -16 -2 -32 -5 -35 -6 -3 -1 -9 -1 -15 0 -5 1 0 -9 13 -22 12 -14 22
-30 22 -38 0 -7 3 -10 7 -7 9 10 43 -23 43 -42 0 -14 2 -14 10 -1 9 13 14 7
11 -12 0 -5 5 -8 12 -8 15 0 63 -51 59 -62 -1 -4 6 -4 15 -1 11 4 14 3 9 -5
-5 -8 0 -12 13 -12 12 0 20 -3 19 -7 -2 -5 0 -8 4 -8 8 0 43 -47 41 -55 -2 -9
19 -30 30 -30 6 0 2 7 -9 15 -18 14 -17 15 8 4 15 -7 25 -16 22 -20 -3 -5 7
-11 22 -15 15 -4 29 -2 33 4 4 7 12 8 21 2 21 -14 33 -12 27 3 -3 8 6 13 27
13 17 1 40 5 52 8 20 7 21 4 20 -42 -1 -28 2 -48 7 -45 9 6 9 -1 -3 -32 -7
-17 -7 -24 0 -20 6 3 10 2 10 -4 0 -5 -7 -14 -16 -19 -15 -8 -15 -10 0 -15 13
-5 15 -11 6 -26 -5 -11 -6 -22 -1 -25 4 -3 7 -33 6 -66 0 -34 2 -63 7 -66 4
-3 8 1 8 9 0 8 6 17 14 20 9 4 12 14 9 25 -2 11 0 23 6 26 5 4 8 13 4 21 -3 8
0 15 7 15 6 0 8 5 4 11 -3 6 -2 14 4 18 6 4 14 22 17 41 3 19 13 46 22 59 8
13 10 20 3 16 -8 -5 -9 -2 -1 11 22 40 41 97 34 107 -4 6 0 8 9 5 11 -5 14 0
10 18 -2 13 0 24 6 24 6 0 8 8 5 19 -3 11 2 21 12 25 14 5 15 9 6 20 -8 10 -9
16 -2 21 11 6 11 55 1 55 -6 0 -11 41 -14 112 0 20 -4 34 -8 31 -7 -3 -13 64
-9 90 0 4 -3 7 -7 7 -5 0 -9 16 -9 35 0 20 -5 41 -11 47 -9 9 -12 6 -12 -15z"/>
<path d="M3976 4466 c1 -17 -1 -35 -4 -41 -4 -5 -7 -19 -7 -30 -2 -32 -16 -98
-25 -122 -7 -17 -6 -23 3 -23 7 0 8 -3 2 -8 -11 -8 -16 -38 -16 -97 -1 -60 5
-104 12 -99 9 5 16 -17 14 -43 -1 -12 2 -20 6 -18 14 9 20 -47 7 -63 -12 -15
-11 -16 5 -3 15 12 17 11 18 -5 1 -11 1 -22 0 -26 0 -5 4 -8 11 -8 6 0 8 -3 5
-7 -4 -3 -2 -12 4 -19 6 -8 9 -21 5 -29 -3 -9 -2 -13 4 -10 6 3 10 -3 10 -14
0 -11 4 -22 10 -26 5 -3 7 -12 3 -20 -3 -8 0 -15 5 -15 6 0 14 -20 18 -45 4
-29 10 -43 18 -38 6 3 8 3 4 -1 -3 -4 -1 -22 4 -39 18 -49 23 -14 23 143 -1
91 3 140 10 140 6 0 7 3 0 8 -5 4 -11 19 -12 35 -2 21 2 27 17 27 11 0 20 -4
20 -9 0 -4 12 -8 28 -8 42 1 123 -24 115 -36 -3 -6 -1 -7 6 -3 6 4 8 12 5 18
-5 7 -2 9 8 5 10 -3 15 0 14 11 -1 11 8 18 22 20 13 2 20 8 16 14 -5 7 -1 9 9
5 10 -4 16 -2 14 6 -1 7 4 11 11 9 6 -1 11 1 11 5 -3 20 2 34 10 28 5 -3 13 4
16 16 6 19 7 20 20 2 13 -17 14 -17 9 3 -4 15 2 27 21 43 15 11 31 18 36 15 5
-3 6 3 2 13 -6 16 -5 17 12 3 10 -8 16 -10 12 -3 -4 6 4 24 18 39 14 15 25 24
25 20 0 -4 7 -1 15 8 8 8 15 18 15 21 0 4 10 15 22 24 14 12 17 18 7 19 -8 1
-34 6 -59 12 -25 6 -53 11 -62 11 -10 0 -18 4 -18 10 0 5 -3 8 -7 7 -5 -1 -33
4 -63 11 -70 17 -138 22 -146 10 -3 -5 -16 -9 -30 -9 -13 0 -24 -5 -24 -11 0
-5 -5 -7 -10 -4 -6 4 -17 1 -25 -5 -8 -6 -19 -9 -24 -6 -5 4 -12 2 -16 -4 -3
-5 -15 -10 -26 -10 -10 0 -19 -4 -19 -9 0 -5 -8 -8 -17 -6 -10 1 -24 -2 -30
-8 -10 -7 -13 -4 -14 9 -1 11 -1 22 0 27 0 4 -3 7 -9 7 -5 0 -9 3 -8 8 4 15
-23 116 -35 131 -8 10 -8 13 0 8 8 -5 9 0 0 23 -15 41 -32 44 -31 6z"/>
<path d="M2815 3940 c3 -5 8 -10 11 -10 2 0 4 5 4 10 0 6 -5 10 -11 10 -5 0
-7 -4 -4 -10z"/>
<path d="M2710 3920 c0 -5 5 -10 11 -10 5 0 7 5 4 10 -3 6 -8 10 -11 10 -2 0
-4 -4 -4 -10z"/>
<path d="M4196 3922 c-3 -5 1 -9 9 -9 8 0 12 4 9 9 -3 4 -7 8 -9 8 -2 0 -6 -4
-9 -8z"/>
<path d="M6925 3780 c-3 -6 1 -7 9 -4 18 7 21 14 7 14 -6 0 -13 -4 -16 -10z"/>
<path d="M796 3738 c3 -5 10 -6 15 -3 13 9 11 12 -6 12 -8 0 -12 -4 -9 -9z"/>
<path d="M875 3741 c-3 -5 -2 -12 3 -15 5 -3 9 1 9 9 0 17 -3 19 -12 6z"/>
<path d="M5809 3723 c-13 -16 -12 -17 4 -4 9 7 17 15 17 17 0 8 -8 3 -21 -13z"/>
<path d="M5595 3720 c3 -5 8 -10 11 -10 2 0 4 5 4 10 0 6 -5 10 -11 10 -5 0
-7 -4 -4 -10z"/>
<path d="M5839 3713 c-13 -16 -12 -17 4 -4 16 13 21 21 13 21 -2 0 -10 -8 -17
-17z"/>
<path d="M5390 3711 c0 -6 4 -13 10 -16 6 -3 7 1 4 9 -7 18 -14 21 -14 7z"/>
<path d="M1335 3700 c3 -5 8 -10 11 -10 2 0 4 5 4 10 0 6 -5 10 -11 10 -5 0
-7 -4 -4 -10z"/>
<path d="M1775 3690 c-4 -6 -11 -7 -17 -4 -7 4 -8 2 -4 -5 6 -9 11 -9 22 0 14
11 18 19 10 19 -3 0 -8 -5 -11 -10z"/>
<path d="M2027 3679 c7 -7 15 -10 18 -7 3 3 -2 9 -12 12 -14 6 -15 5 -6 -5z"/>
<path d="M5010 3666 c0 -2 7 -7 16 -10 8 -3 12 -2 9 4 -6 10 -25 14 -25 6z"/>
<path d="M2035 3651 c-3 -5 -2 -12 3 -15 5 -3 9 1 9 9 0 17 -3 19 -12 6z"/>
<path d="M2177 3513 c-3 -5 -27 -8 -54 -7 -26 0 -54 -3 -60 -9 -9 -6 -13 -5
-13 4 0 11 -2 11 -10 -1 -8 -12 -10 -12 -10 -1 0 11 -3 11 -16 0 -13 -10 -17
-10 -25 2 -5 8 -9 9 -9 4 0 -6 -10 -11 -22 -12 -13 0 -75 -3 -138 -7 -63 -5
-150 -9 -192 -11 -42 -2 -80 -5 -85 -7 -4 -2 -45 -3 -90 -3 -45 0 -79 -3 -76
-8 3 -5 -4 -4 -15 2 -14 8 -23 8 -27 1 -5 -8 -11 -8 -20 0 -10 8 -15 8 -20 -1
-6 -8 -10 -7 -16 2 -5 8 -9 9 -9 4 0 -6 -45 -12 -112 -14 -171 -5 -186 -6
-193 -13 -4 -3 -19 -3 -34 2 -16 4 -33 5 -39 1 -5 -3 -49 -6 -96 -6 -47 0 -86
-2 -86 -5 0 -3 -9 -6 -19 -6 -11 0 -17 4 -15 8 3 4 1 8 -5 8 -5 0 -13 -4 -16
-10 -3 -5 -11 -10 -16 -10 -6 0 -7 6 -3 13 6 9 4 9 -7 1 -8 -6 -49 -10 -91
-10 -43 1 -78 -2 -78 -6 0 -4 -11 -3 -25 2 -13 5 -26 6 -29 2 -2 -4 -62 -9
-133 -11 -70 -1 -133 -7 -138 -11 -6 -5 -17 -5 -24 0 -13 7 -48 5 -76 -4 -6
-2 -9 -21 -8 -42 1 -22 3 -58 4 -81 1 -26 5 -40 12 -36 6 4 7 1 2 -8 -11 -18
-14 -49 -4 -49 4 0 6 -15 5 -32 -2 -18 2 -36 8 -40 7 -5 6 -8 -4 -8 -10 0 -11
-3 -3 -8 6 -4 12 -27 14 -52 1 -25 7 -51 12 -57 6 -9 6 -13 -2 -13 -9 0 -9 -5
-1 -20 6 -11 7 -20 3 -20 -4 0 -1 -5 7 -10 13 -9 13 -10 0 -10 -11 0 -12 -2
-3 -8 10 -6 18 -51 23 -125 0 -5 4 -6 9 -2 6 3 8 -6 5 -20 -2 -14 0 -25 6 -25
5 0 10 -9 10 -20 0 -11 -4 -20 -10 -20 -5 0 -1 -9 10 -20 16 -16 18 -25 10
-40 -9 -16 -8 -18 6 -13 12 4 15 3 10 -6 -4 -6 -3 -18 3 -25 6 -7 11 -27 13
-44 1 -18 7 -32 13 -32 5 0 3 -5 -5 -10 -13 -8 -12 -10 3 -10 10 0 15 -5 12
-10 -4 -6 -2 -17 4 -24 6 -7 12 -25 13 -40 1 -14 5 -26 9 -26 5 0 7 -8 11 -49
1 -11 6 -17 10 -15 7 5 33 -71 31 -93 0 -7 3 -13 8 -13 4 0 13 -10 20 -21 8
-15 8 -19 0 -15 -6 4 -11 2 -11 -3 0 -6 6 -11 14 -11 8 0 17 -13 21 -30 4 -16
11 -32 16 -35 5 -4 9 -14 9 -25 0 -10 7 -21 16 -24 8 -3 12 -2 9 4 -9 14 9 12
24 -2 10 -11 11 -10 6 3 -4 10 -1 20 6 25 7 4 10 3 5 -4 -3 -6 -2 -14 4 -17 6
-4 10 -3 9 2 -3 17 1 33 9 31 4 -1 39 14 79 34 39 20 74 33 77 30 3 -3 6 0 6
6 0 10 38 28 53 24 4 -1 7 2 7 6 0 12 42 30 63 26 9 -1 15 2 12 6 -6 10 29 32
42 28 4 -2 9 2 11 7 5 17 44 26 59 14 11 -9 12 -9 8 4 -4 8 -2 18 4 22 6 3 11
1 11 -4 0 -6 4 -11 10 -11 5 0 6 7 3 17 -4 10 -2 14 4 10 6 -4 16 0 23 9 7 8
19 13 26 10 7 -3 15 2 18 10 3 9 10 12 16 9 6 -4 7 -12 4 -18 -4 -7 -3 -8 2
-4 5 5 9 12 9 15 1 17 17 31 30 25 8 -3 15 0 15 7 0 7 7 10 16 6 8 -3 12 -2 9
4 -3 5 6 12 20 16 14 3 25 10 25 16 0 5 4 7 9 4 5 -4 11 -1 13 4 2 6 13 12 25
13 13 0 25 7 27 14 3 7 10 13 16 13 6 0 8 -6 4 -12 -4 -7 4 -2 19 12 14 14 30
25 34 25 4 0 14 4 21 8 6 5 12 5 12 0 0 -4 5 -1 10 7 5 8 14 16 20 16 5 1 12
3 15 4 3 1 8 3 13 5 26 7 41 18 36 27 -4 6 3 5 15 -1 17 -10 21 -9 21 4 0 9 5
13 10 10 6 -3 10 -1 10 4 0 6 9 11 19 11 11 0 21 5 23 11 2 6 15 12 30 12 14
1 24 4 22 6 -7 8 36 32 46 26 6 -3 10 -2 10 4 0 6 7 8 15 4 10 -3 15 0 13 8
-2 10 7 14 32 13 19 -1 29 1 23 3 -22 8 -14 21 11 19 19 -2 23 1 18 13 -5 14
-4 14 11 2 16 -12 17 -12 10 5 -6 17 -5 17 10 5 15 -12 17 -12 11 4 -5 12 -4
16 4 11 6 -3 13 -2 17 4 3 5 15 10 26 10 10 0 19 6 19 13 0 8 4 7 10 -3 8 -13
10 -12 10 4 0 11 5 16 14 13 8 -3 17 1 20 10 5 13 9 13 23 2 13 -11 15 -11 9
-1 -5 9 -1 15 13 19 11 3 18 10 14 16 -3 6 -1 7 5 3 7 -4 12 -2 12 3 0 6 3 10
8 9 17 -3 112 43 112 55 0 4 5 5 11 1 6 -3 15 0 20 7 6 10 9 11 9 2 0 -7 4
-13 10 -13 5 0 7 7 4 15 -4 9 0 15 10 15 9 0 16 5 16 11 0 5 5 7 10 4 6 -3 22
3 36 14 15 11 30 18 34 16 5 -3 11 -1 15 5 3 5 15 10 26 10 13 0 18 4 13 12
-5 8 0 9 14 6 12 -4 20 -2 16 3 -3 5 2 9 10 9 9 0 16 5 16 10 0 6 5 10 11 10
5 0 7 -6 4 -12 -4 -7 0 -5 8 4 13 17 61 41 82 42 6 1 21 11 35 24 16 14 34 21
48 19 12 -2 20 -2 17 1 -9 10 16 31 31 25 8 -3 14 -1 14 5 0 5 8 12 18 16 9 3
24 9 32 13 13 5 13 4 2 -9 -10 -13 -10 -18 -1 -24 8 -4 9 -3 5 5 -4 6 0 14 8
17 9 3 14 9 11 14 -2 4 7 12 20 18 14 7 25 18 25 26 0 7 7 19 15 26 10 9 12
17 6 23 -6 6 -4 23 4 47 7 21 11 41 8 44 -3 3 0 12 7 21 7 8 9 15 5 15 -4 0
-2 7 5 15 6 8 9 19 5 25 -6 10 -45 -29 -45 -44 0 -4 -5 -12 -10 -19 -43 -50
-60 -73 -60 -78 0 -5 -9 -17 -49 -65 -5 -6 -12 -20 -15 -32 -4 -12 -12 -20
-17 -17 -5 4 -9 1 -9 -5 0 -11 -9 -2 -61 60 -11 14 -38 45 -59 70 -41 48 -56
66 -110 131 -57 68 -64 75 -82 82 -10 4 -18 2 -18 -5 0 -7 -4 -7 -14 1 -8 7
-17 8 -19 4z"/>
<path d="M4740 3508 c0 -4 -6 -8 -13 -8 -14 0 -21 -8 -97 -100 -51 -63 -86
-103 -117 -137 -12 -12 -19 -23 -15 -23 4 0 -1 -5 -10 -11 -10 -5 -18 -17 -18
-26 0 -9 -3 -13 -7 -9 -4 3 -13 -4 -20 -16 -7 -13 -12 -17 -13 -10 0 7 -4 11
-9 8 -5 -3 -14 8 -21 24 -7 17 -15 30 -19 30 -3 0 -17 18 -31 40 -14 22 -28
40 -32 40 -5 0 -8 7 -8 15 0 8 -4 15 -10 15 -5 0 -10 6 -10 13 0 6 -13 26 -30
43 -16 18 -27 35 -25 38 3 3 0 2 -5 -2 -7 -6 -7 -19 1 -40 6 -18 8 -39 5 -48
-3 -8 -2 -12 4 -9 6 4 10 -6 11 -22 0 -15 4 -37 8 -48 5 -11 4 -25 -2 -33 -7
-9 -6 -11 7 -6 9 4 16 3 15 -2 -4 -23 3 -32 32 -38 19 -4 28 -10 23 -17 -4 -7
-1 -10 7 -7 8 3 26 -4 42 -14 15 -11 27 -17 27 -13 0 3 9 1 20 -5 11 -6 18
-15 15 -20 -3 -4 5 -6 17 -2 15 4 28 -3 46 -24 13 -16 21 -24 18 -17 -9 17 34
4 69 -22 17 -13 37 -20 45 -18 13 4 13 3 0 -6 -12 -9 -9 -11 13 -11 19 0 26
-4 21 -12 -4 -7 -3 -8 5 -4 6 4 19 2 27 -5 9 -7 23 -14 32 -15 8 -2 18 -8 22
-14 4 -7 10 -11 14 -11 3 1 14 1 24 1 14 0 15 -2 2 -10 -12 -8 -10 -10 9 -10
14 0 33 -8 44 -17 11 -10 17 -12 13 -5 -4 6 -5 12 -2 12 2 0 11 -6 18 -12 21
-20 75 -49 100 -53 13 -3 24 -9 26 -14 2 -6 25 -17 53 -26 27 -9 49 -21 49
-26 0 -5 9 -9 20 -9 11 0 20 -5 20 -11 0 -5 5 -7 10 -4 6 3 10 1 10 -5 0 -6 5
-8 10 -5 6 3 10 1 10 -4 0 -6 8 -11 18 -11 24 0 74 -35 65 -45 -5 -4 -2 -5 5
-1 15 9 112 -33 112 -47 0 -5 7 -6 16 -3 8 3 12 2 9 -4 -3 -6 2 -10 12 -10 24
-1 55 -25 45 -36 -4 -4 2 -2 12 6 13 10 17 10 12 3 -5 -9 0 -13 13 -13 12 0
21 -4 21 -10 0 -5 6 -9 13 -7 6 1 11 -4 10 -10 -2 -7 0 -12 5 -12 4 1 18 1 31
0 17 -1 22 -5 17 -17 -6 -15 -4 -15 11 -3 14 12 16 12 11 -1 -4 -11 3 -16 25
-17 17 -1 38 -10 46 -19 11 -12 12 -15 2 -9 -9 5 -12 4 -7 -3 4 -6 12 -9 20
-6 15 6 67 -12 65 -23 -3 -20 2 -24 16 -13 10 9 15 9 15 1 0 -6 9 -11 20 -11
11 0 20 -4 20 -10 0 -5 7 -10 16 -10 8 0 12 -4 9 -10 -4 -6 1 -7 11 -3 14 5
16 3 11 -12 -7 -15 -5 -16 9 -5 10 9 18 10 22 4 8 -12 43 -28 55 -26 4 1 7 -2
7 -8 0 -6 5 -9 12 -8 7 2 12 -2 13 -9 0 -6 4 -15 9 -20 5 -5 6 -3 2 5 -4 6 -5
12 -1 12 14 0 95 -43 95 -51 0 -4 9 -6 20 -4 11 2 18 0 15 -5 -3 -4 8 -11 24
-15 16 -3 35 -13 41 -21 7 -7 16 -11 21 -8 5 3 9 0 9 -5 0 -6 9 -11 21 -11 13
0 18 -4 13 -12 -5 -7 -2 -9 9 -5 9 3 18 0 21 -9 3 -9 10 -13 14 -10 11 7 83
-31 100 -52 8 -10 12 -11 12 -3 0 7 5 9 10 6 6 -4 8 -9 6 -13 -2 -4 7 -8 21
-8 27 -2 40 -11 30 -20 -4 -4 -15 -1 -24 7 -17 12 -17 12 -1 -6 14 -15 20 -16
32 -5 15 11 20 7 17 -12 0 -4 7 -4 16 -1 10 4 14 2 9 -5 -3 -6 -1 -14 5 -18 8
-4 9 -3 5 4 -4 7 -1 12 8 12 9 0 16 -5 16 -12 0 -6 3 -9 6 -5 4 3 14 -1 23
-10 15 -15 17 -13 26 21 6 20 14 34 18 30 4 -4 7 3 7 15 0 12 4 19 10 16 6 -4
7 1 3 11 -4 10 -2 15 3 11 5 -3 10 2 10 11 1 21 7 45 14 52 3 3 11 16 18 29
11 18 11 21 1 15 -7 -4 -3 9 9 30 12 20 22 44 22 52 0 8 4 14 9 14 5 0 7 10 3
22 -3 14 -2 19 6 14 8 -5 12 1 12 16 0 13 8 34 17 47 12 18 13 22 2 16 -11 -7
-12 -6 -2 6 6 8 14 31 18 51 4 21 11 35 16 33 4 -3 6 4 4 15 -2 11 3 27 11 35
11 11 12 15 3 15 -10 0 -10 3 -1 12 7 7 12 25 12 40 0 15 4 28 9 28 5 0 8 11
6 25 -1 14 2 25 6 25 5 0 8 3 7 8 -3 17 15 111 21 108 4 -3 7 15 6 40 0 24 3
44 7 44 4 0 5 6 2 14 -3 8 -1 17 4 20 5 3 7 18 4 32 -3 17 -1 25 5 21 6 -4 8
3 5 18 -2 14 2 33 9 42 8 10 9 14 2 10 -8 -5 -11 -1 -10 12 0 11 4 18 8 15 4
-2 6 19 5 46 -1 28 1 50 4 50 3 0 6 38 8 85 l3 85 -38 1 c-118 4 -208 7 -208
9 0 7 -47 5 -51 -2 -3 -5 -11 -5 -17 1 -7 5 -62 11 -122 12 -61 1 -119 6 -131
10 -11 4 -28 3 -37 -2 -9 -6 -17 -6 -17 -2 0 4 -46 8 -103 8 -56 0 -106 2
-112 4 -5 3 -40 6 -78 7 -38 2 -75 5 -83 8 -7 3 -16 1 -19 -5 -4 -5 -12 -6
-18 -2 -12 7 -48 10 -224 15 -50 2 -90 5 -88 8 5 8 -39 5 -53 -4 -7 -4 -12 -3
-12 1 0 5 -36 9 -80 8 -44 0 -80 2 -80 5 0 3 -9 6 -20 6 -11 0 -20 -5 -20 -11
0 -5 -5 -3 -10 5 -7 11 -10 11 -10 2 0 -8 -5 -10 -12 -5 -7 4 -33 9 -58 10
-25 1 -83 5 -130 8 -47 3 -116 7 -153 9 -37 2 -71 6 -74 10 -3 3 -12 1 -20 -5
-8 -8 -13 -8 -13 -1 0 6 -10 9 -23 8 -13 -2 -47 0 -75 4 -29 3 -52 3 -52 -2z"/>
<path d="M3072 3209 c-11 -17 -11 -20 0 -13 7 4 5 -2 -4 -13 -10 -11 -18 -27
-18 -36 0 -9 -5 -19 -11 -22 -6 -4 -8 -14 -5 -22 3 -8 1 -11 -4 -8 -6 3 -10
-3 -10 -14 0 -12 -5 -21 -12 -21 -6 0 -9 -3 -5 -6 3 -4 0 -19 -8 -34 -8 -15
-11 -30 -8 -34 4 -3 1 -6 -6 -6 -7 0 -9 -4 -6 -10 3 -5 1 -10 -5 -10 -18 0 5
-33 39 -55 23 -15 29 -26 26 -44 -2 -13 -1 -20 3 -16 4 3 8 11 8 16 3 22 5 23
12 14 4 -6 20 -18 35 -28 15 -10 26 -21 23 -25 -3 -4 5 -9 16 -9 11 -1 28 -10
38 -20 9 -10 27 -24 38 -32 12 -8 19 -18 16 -23 -3 -4 1 -5 9 -2 8 3 21 -2 30
-10 8 -8 18 -12 22 -8 5 4 5 -1 2 -10 -4 -12 -2 -15 7 -12 8 3 20 -3 27 -13 8
-10 21 -19 29 -21 31 -7 39 -24 38 -85 0 -34 -5 -68 -11 -74 -5 -7 -6 -13 -1
-13 13 0 14 -51 2 -74 -7 -13 -7 -16 1 -12 6 4 11 3 11 -3 0 -5 -5 -13 -11
-17 -8 -4 -7 -9 2 -16 11 -7 11 -11 1 -15 -6 -2 -10 -9 -6 -14 3 -5 -4 -9 -14
-9 -11 0 -36 -7 -57 -16 -21 -8 -44 -13 -52 -10 -8 3 -12 2 -9 -3 5 -8 -58
-27 -76 -23 -5 1 -8 -3 -8 -8 0 -5 -3 -9 -7 -8 -14 2 -67 -14 -82 -26 -12 -9
-13 -8 -6 4 7 11 3 11 -18 -3 -15 -10 -32 -15 -37 -12 -5 3 -11 1 -15 -5 -3
-5 -15 -10 -26 -10 -13 0 -18 -4 -13 -12 4 -7 3 -8 -4 -4 -13 8 -94 -13 -103
-27 -3 -5 -15 3 -27 17 -20 27 -33 22 -39 -13 -1 -8 -6 -17 -12 -20 -5 -3 -13
-19 -16 -34 -4 -15 -10 -27 -14 -27 -4 0 -15 -22 -26 -50 -11 -27 -23 -50 -27
-50 -4 0 -8 -9 -8 -19 0 -11 -5 -23 -10 -26 -6 -4 -8 -11 -5 -16 4 -5 2 -9 -2
-9 -5 0 -15 -16 -22 -35 -7 -19 -17 -35 -22 -35 -5 0 -9 -9 -9 -19 0 -11 -7
-27 -16 -35 -8 -9 -13 -16 -10 -16 2 0 -11 -30 -30 -67 -19 -37 -34 -73 -34
-80 0 -7 -5 -13 -11 -13 -5 0 -7 -4 -4 -10 3 -5 2 -10 -3 -10 -9 0 -25 -37
-23 -52 1 -5 -4 -8 -11 -8 -6 0 -9 -3 -5 -6 3 -3 -10 -34 -29 -68 -19 -35 -31
-66 -27 -69 3 -4 2 -7 -4 -7 -10 0 -41 -63 -41 -84 0 -5 -4 -12 -9 -15 -4 -3
-17 -24 -28 -46 -10 -22 -26 -49 -35 -59 -12 -16 -12 -18 -1 -11 9 5 5 -5 -7
-22 -12 -17 -22 -39 -22 -48 0 -9 -4 -14 -9 -11 -5 3 -12 -5 -15 -19 -7 -29
-200 -424 -216 -442 -6 -7 -8 -13 -5 -13 3 0 -14 -38 -39 -85 -33 -62 -41 -85
-30 -85 8 0 17 -7 20 -15 4 -9 14 -14 23 -13 11 2 15 -3 14 -17 -1 -11 0 -14
3 -7 7 14 34 16 34 2 0 -5 9 -10 19 -10 11 0 23 -5 26 -10 3 -6 15 -10 25 -10
10 0 20 -5 22 -10 2 -6 16 -13 33 -16 16 -3 34 -9 41 -15 6 -5 14 -6 17 -2 4
3 7 1 7 -5 0 -7 9 -12 21 -12 11 0 18 -4 15 -9 -3 -5 4 -9 17 -9 39 -2 61 -9
65 -20 2 -7 -2 -12 -9 -12 -7 0 -10 -3 -7 -6 3 -3 16 1 28 8 18 10 24 10 27 0
3 -6 9 -9 14 -6 6 3 16 1 23 -5 7 -6 30 -14 52 -19 24 -6 38 -14 36 -22 -3
-11 0 -11 12 -1 12 10 19 10 38 0 22 -12 36 -16 85 -22 12 -1 25 -6 28 -9 4
-4 13 -4 21 -1 8 3 14 0 14 -7 0 -6 -4 -9 -8 -6 -5 3 -9 -1 -9 -9 0 -11 5 -10
24 2 13 8 23 11 23 6 0 -6 11 -8 25 -5 14 2 25 0 25 -5 0 -6 12 -9 28 -8 15 1
30 -3 34 -9 4 -6 24 -9 45 -7 35 3 36 2 23 -16 -14 -17 -13 -16 8 1 13 12 22
14 22 7 0 -7 5 -9 11 -6 6 4 26 4 45 0 30 -5 34 -9 29 -28 -5 -22 -5 -22 6 1
13 24 29 29 29 10 0 -9 3 -9 8 -3 4 6 18 11 32 12 14 1 19 -1 13 -4 -7 -3 -13
-9 -13 -14 0 -6 7 -6 18 -1 9 5 46 7 82 5 45 -2 60 0 50 7 -8 5 -10 10 -4 10
7 0 12 30 14 83 1 45 3 101 4 124 0 24 3 43 6 43 3 0 4 31 4 70 -1 43 2 67 8
64 6 -4 5 3 -1 15 -8 14 -8 21 -1 21 5 0 10 5 10 11 0 5 -5 7 -12 3 -7 -5 -8
-3 -3 6 5 7 9 49 10 92 2 44 5 82 8 85 4 3 2 14 -3 24 -6 10 -6 20 -1 23 5 3
9 38 10 78 1 45 6 75 14 80 9 6 9 8 0 8 -13 0 -13 26 0 48 5 7 3 12 -3 12 -6
0 -8 5 -4 12 6 10 10 62 13 211 1 34 4 46 13 41 7 -5 8 -3 3 5 -8 15 -14 101
-5 96 3 -2 5 25 6 58 1 34 3 101 5 149 2 60 -1 92 -9 100 -7 7 -12 8 -12 4 0
-5 -6 -3 -14 3 -7 6 -25 12 -40 13 -14 1 -26 6 -26 11 0 5 -10 5 -21 2 -13 -5
-19 -3 -15 3 3 6 -13 13 -39 16 -25 4 -45 12 -45 18 0 6 -2 9 -5 6 -3 -3 -34
3 -68 14 -34 11 -69 21 -77 23 -8 2 -27 8 -42 14 -16 6 -28 8 -28 5 0 -4 -6
-1 -13 5 -8 6 -17 8 -20 4 -4 -3 -7 -1 -7 5 0 7 -5 11 -11 9 -6 -1 -13 6 -14
16 -2 9 0 17 5 17 4 0 6 11 5 25 -2 14 0 25 5 25 7 0 18 41 23 83 1 10 7 15
13 13 7 -3 10 2 8 12 -7 29 10 41 61 46 27 3 51 10 53 16 2 6 10 4 18 -7 13
-17 14 -17 7 1 -5 15 -3 18 10 13 9 -3 17 -3 17 2 0 4 6 8 13 8 6 0 26 4 42 7
17 4 39 9 50 10 11 2 20 4 20 5 0 2 8 4 18 6 16 3 16 1 5 -13 -10 -13 -8 -13
9 1 12 11 27 16 34 11 7 -4 10 -3 6 4 -5 6 11 13 40 17 57 7 69 6 65 -7 -1 -5
2 -7 8 -3 6 3 8 10 5 15 -7 11 24 22 38 13 18 -11 38 -12 31 -2 -3 5 -10 7
-15 4 -5 -4 -9 -2 -9 3 0 5 23 10 50 11 39 1 50 -2 50 -14 0 -8 5 -15 11 -15
5 0 7 5 4 10 -3 6 1 10 9 10 9 0 16 -6 16 -12 0 -9 4 -8 10 2 5 8 10 10 10 4
0 -6 12 -11 26 -11 15 0 29 -5 33 -10 3 -5 18 -9 34 -8 15 1 27 -1 27 -5 0 -3
16 -6 36 -5 22 1 38 -3 41 -11 3 -8 9 -12 13 -9 7 4 71 -6 120 -19 8 -3 19 -5
23 -5 5 -1 6 -5 3 -9 -2 -4 11 -6 30 -4 19 2 34 0 34 -5 0 -5 12 -9 28 -9 21
1 28 -4 30 -24 2 -14 8 -30 14 -37 5 -7 7 -17 4 -22 -4 -5 -2 -12 3 -15 5 -4
12 -24 16 -46 4 -22 12 -40 18 -40 7 0 5 -5 -3 -10 -11 -7 -12 -10 -2 -10 15
0 11 -24 -4 -26 -5 0 -16 -3 -24 -7 -26 -10 -105 -31 -112 -29 -5 1 -8 -3 -8
-8 0 -5 -3 -9 -7 -8 -13 3 -77 -14 -90 -24 -7 -5 -17 -7 -22 -4 -5 4 -12 2
-16 -3 -3 -6 -26 -13 -50 -17 -25 -3 -45 -10 -45 -14 0 -4 -17 -11 -37 -15
-21 -4 -44 -11 -50 -17 -7 -6 -13 -7 -13 -3 0 4 -7 2 -16 -5 -17 -15 -16 -70
1 -82 7 -5 6 -8 -1 -8 -10 0 -10 -13 0 -125 1 -11 5 -25 9 -32 4 -6 2 -13 -5
-15 -7 -3 -8 -9 -3 -19 5 -8 10 -39 11 -69 1 -30 3 -57 4 -60 6 -14 4 -36 -5
-42 -6 -5 -6 -8 1 -8 6 0 12 -25 13 -58 2 -31 5 -84 7 -117 2 -33 5 -80 7
-105 2 -25 7 -52 12 -59 5 -10 4 -12 -3 -7 -7 4 -12 2 -12 -3 0 -6 3 -11 8
-11 4 0 7 -27 7 -60 -1 -33 3 -60 8 -60 5 0 4 -7 -3 -15 -9 -10 -9 -15 -1 -15
6 0 11 -7 11 -15 0 -8 -6 -15 -12 -15 -10 0 -10 -2 -1 -8 7 -4 12 -39 14 -87
1 -44 6 -85 11 -92 5 -7 5 -14 -2 -18 -6 -3 -8 -9 -6 -13 10 -17 15 -83 6 -77
-6 3 -7 -1 -4 -9 3 -9 9 -14 13 -12 3 2 6 -33 6 -77 0 -45 3 -87 8 -94 4 -6 3
-14 -3 -18 -7 -4 -7 -11 -2 -18 5 -7 9 -23 10 -36 0 -13 6 -29 13 -35 9 -8 10
-8 5 1 -4 8 12 12 53 15 37 2 57 -1 54 -7 -2 -5 1 -3 9 6 9 11 31 15 80 15 36
-1 64 3 61 7 -3 5 8 7 23 5 18 -2 28 -8 26 -16 -1 -8 2 -11 8 -7 6 3 8 11 5
16 -4 5 1 9 10 9 9 0 14 3 12 8 -3 4 6 7 19 7 13 0 24 -4 24 -8 0 -5 5 -5 10
-2 6 4 7 12 3 18 -4 7 0 6 10 -2 12 -10 17 -10 17 -1 0 6 6 10 13 7 6 -2 23 0
36 5 13 4 38 10 55 13 17 2 39 7 49 10 14 6 16 3 11 -11 -5 -15 -3 -14 10 4
18 23 63 32 50 10 -4 -8 -3 -10 2 -5 5 5 9 14 9 20 0 7 12 11 28 11 15 -1 27
3 27 8 0 5 5 6 10 3 6 -3 10 0 10 7 0 9 3 9 10 -2 5 -8 10 -10 10 -4 0 16 60
26 75 14 10 -8 13 -6 11 7 0 12 6 18 19 18 11 0 24 6 28 13 5 7 13 10 18 6 5
-3 16 0 24 6 8 7 15 9 15 5 0 -4 6 -3 13 2 20 16 49 24 41 12 -3 -6 3 -5 15 3
12 7 21 15 21 19 0 3 6 6 13 7 36 3 53 8 59 17 4 6 11 11 15 11 21 3 73 29 73
37 0 4 5 5 11 2 5 -4 18 0 27 8 9 8 27 18 40 22 17 5 22 12 17 23 -4 10 -7 22
-8 27 -1 6 -6 13 -12 17 -5 4 -10 11 -10 15 -1 4 -6 18 -13 31 -7 12 -9 22 -5
22 4 0 3 4 -3 8 -13 8 -74 133 -74 150 0 7 -4 12 -9 12 -7 0 -19 28 -19 47 0
3 -5 9 -10 12 -10 6 -43 78 -39 84 1 2 -6 11 -16 21 -9 10 -15 21 -12 26 3 4
-2 13 -10 20 -8 7 -15 17 -15 22 0 12 -51 122 -60 128 -4 3 -13 22 -21 43 -7
20 -16 37 -20 37 -6 0 -12 15 -19 48 -1 4 -9 15 -17 25 -9 9 -13 17 -10 17 9
0 -45 102 -58 112 -5 4 -7 8 -3 8 9 0 -32 82 -45 91 -5 3 -8 9 -7 13 1 4 -32
73 -72 154 -40 81 -72 153 -71 159 0 7 -3 10 -8 7 -5 -3 -9 2 -9 10 0 8 -7 22
-16 30 -8 9 -13 16 -9 16 3 0 -1 13 -10 30 -8 16 -15 32 -15 35 0 3 -9 20 -19
39 -32 56 -38 68 -73 141 -18 39 -36 72 -40 73 -5 2 -8 11 -8 20 -1 14 -4 13
-19 -5 -19 -23 -41 -29 -55 -16 -3 4 -13 8 -21 10 -8 2 -22 4 -30 6 -8 2 -18
6 -21 10 -4 4 -14 7 -23 7 -9 0 -29 7 -44 15 -15 8 -25 9 -21 4 3 -6 -4 -5
-17 2 -13 7 -32 14 -41 16 -36 6 -43 8 -48 15 -3 4 -16 9 -28 11 -12 2 -25 6
-28 10 -4 4 -20 7 -36 7 -15 0 -28 4 -28 10 0 5 -3 9 -7 8 -13 -4 -108 25
-114 34 -3 5 -7 74 -7 153 -2 113 1 145 13 155 8 6 20 8 26 4 8 -4 9 -3 5 4
-4 7 -3 12 2 12 4 0 17 8 28 18 10 10 48 38 84 62 36 24 70 48 75 52 6 5 21
17 34 28 29 24 35 25 27 4 -3 -8 -2 -12 4 -9 6 3 10 12 10 19 0 7 9 21 20 31
11 10 20 13 20 7 0 -7 4 -12 10 -12 5 0 9 3 9 8 -4 21 4 31 32 42 19 8 26 16
19 20 -7 4 -11 10 -10 14 4 13 -24 96 -32 96 -4 0 -8 12 -8 26 0 14 -4 23 -8
20 -4 -2 -14 15 -21 40 -7 24 -17 44 -21 44 -4 0 -7 7 -6 16 0 9 -4 19 -10 21
-12 4 -14 -9 -13 -89 0 -55 -1 -58 -25 -59 -38 -2 -44 -3 -51 -11 -4 -4 -18
-2 -32 3 -17 6 -30 6 -38 -1 -10 -8 -15 -8 -20 0 -5 8 -10 8 -20 0 -9 -8 -15
-8 -20 0 -3 6 -12 7 -18 3 -7 -4 -44 -8 -83 -9 -39 0 -76 -4 -82 -8 -7 -4 -12
-3 -12 2 0 10 -30 9 -48 -2 -6 -4 -12 -3 -12 3 0 5 -17 8 -37 6 -21 -2 -46 1
-56 7 -13 7 -17 7 -13 0 4 -6 -2 -10 -14 -9 -11 1 -20 4 -20 7 0 3 -11 5 -24
5 -13 0 -22 -3 -19 -7 2 -5 -1 -8 -6 -8 -6 0 -11 4 -11 8 0 5 -21 9 -47 9 -81
2 -77 1 -62 20 9 10 9 14 2 10 -9 -5 -11 1 -10 20 2 15 0 47 -3 71 -5 40 -6
42 -18 21z"/>
<path d="M4405 3100 c-3 -6 1 -7 9 -4 18 7 21 14 7 14 -6 0 -13 -4 -16 -10z"/>
<path d="M4475 3091 c-3 -5 -2 -12 3 -15 5 -3 9 1 9 9 0 17 -3 19 -12 6z"/>
<path d="M2516 3078 c3 -5 10 -6 15 -3 13 9 11 12 -6 12 -8 0 -12 -4 -9 -9z"/>
<path d="M4555 3051 c-3 -5 -2 -12 3 -15 5 -3 9 1 9 9 0 17 -3 19 -12 6z"/>
<path d="M2625 3020 c3 -5 0 -10 -7 -10 -7 0 -33 -14 -58 -30 -25 -17 -53 -36
-64 -43 -10 -6 -25 -18 -32 -25 -8 -7 -14 -11 -14 -7 0 4 -7 -1 -16 -9 -8 -9
-22 -16 -30 -16 -8 0 -14 -4 -14 -9 0 -7 -92 -72 -179 -126 -9 -5 -18 -12 -21
-15 -3 -3 -30 -21 -60 -40 -30 -19 -61 -40 -68 -47 -6 -6 -21 -15 -32 -18 -11
-3 -20 -10 -20 -15 0 -5 -8 -11 -18 -15 -20 -6 -115 -73 -143 -100 -9 -8 -20
-15 -25 -15 -10 0 -27 -12 -84 -57 -15 -13 -32 -23 -38 -23 -6 0 -12 -4 -14
-8 -3 -9 -89 -69 -101 -71 -4 0 -18 -12 -31 -26 -13 -13 -25 -23 -28 -20 -2 2
-19 -9 -36 -25 -18 -16 -32 -26 -32 -22 0 4 -7 -2 -15 -12 -8 -11 -15 -16 -15
-12 0 7 -58 -33 -94 -66 -10 -10 -23 -15 -28 -12 -4 3 -11 -2 -14 -10 -3 -9
-12 -16 -19 -16 -6 0 -20 -9 -30 -20 -10 -11 -24 -20 -32 -20 -8 0 -12 -4 -9
-9 3 -4 -5 -13 -18 -19 -28 -13 -198 -132 -208 -147 -4 -5 -8 -6 -8 -2 0 5 -6
2 -14 -5 -7 -7 -24 -20 -36 -28 -12 -8 -29 -21 -36 -28 -8 -7 -14 -10 -14 -6
0 4 -9 -3 -20 -16 -11 -13 -20 -20 -20 -16 0 4 -21 -9 -46 -29 -26 -19 -51
-35 -56 -35 -5 0 -6 -4 -3 -10 3 -5 1 -10 -6 -10 -14 0 -109 -61 -109 -70 0
-3 5 -11 12 -18 7 -7 9 -12 5 -12 -4 0 1 -9 11 -19 31 -35 42 -50 42 -59 0 -7
30 -46 73 -92 8 -8 17 -23 20 -32 4 -10 11 -18 16 -18 6 0 8 -7 4 -15 -3 -10
0 -15 8 -13 8 2 13 -4 13 -14 -1 -10 2 -15 7 -13 11 8 50 -36 42 -48 -3 -6 -1
-7 5 -3 16 10 25 -13 12 -29 -8 -9 -8 -15 -2 -15 6 0 12 6 15 13 3 7 13 1 28
-18 13 -16 32 -38 42 -48 10 -10 15 -22 12 -27 -3 -5 0 -12 6 -16 8 -4 9 -3 5
4 -18 30 14 6 67 -48 33 -35 55 -65 51 -72 -4 -7 -3 -8 5 -4 7 5 20 -1 31 -14
10 -12 22 -21 27 -21 4 0 8 -8 7 -17 0 -12 7 -18 20 -18 14 1 21 -5 20 -17 -1
-9 2 -17 7 -17 5 0 9 6 10 13 0 6 5 2 11 -10 6 -13 18 -25 27 -28 28 -8 72
-55 64 -68 -4 -7 2 -5 12 3 11 9 16 10 11 2 -4 -7 -2 -12 4 -12 6 0 9 -4 6 -9
-3 -5 2 -8 11 -7 10 0 18 -4 18 -11 0 -6 4 -15 9 -20 5 -5 6 -3 2 5 -4 6 -3
12 1 12 15 0 32 -22 27 -35 -3 -7 -1 -16 5 -20 7 -3 8 0 5 9 -3 9 -1 16 5 16
6 0 11 -4 11 -8 0 -4 13 -15 29 -25 29 -17 30 -17 36 3 3 11 13 20 21 20 8 0
13 4 9 9 -3 5 -1 12 5 16 6 4 7 11 4 17 -5 8 -1 9 10 5 9 -4 15 -3 11 3 -3 5
4 18 16 29 12 11 18 24 14 32 -5 8 -4 10 3 5 7 -4 12 -1 12 9 0 10 5 13 12 9
7 -5 9 -2 5 9 -3 9 0 18 9 21 8 3 14 12 14 20 0 9 9 20 21 26 11 7 18 14 15
17 -3 3 2 12 12 20 11 10 12 12 2 8 -8 -4 -6 1 5 10 11 9 19 21 17 26 -1 5 5
12 13 15 8 4 15 11 15 18 0 6 13 27 30 46 16 19 29 41 30 48 0 6 4 12 10 12 5
0 12 11 16 25 3 13 11 23 17 22 6 -1 11 4 12 11 0 7 7 17 15 22 8 5 11 10 5
10 -7 0 -7 3 0 8 21 15 74 100 67 107 -4 5 -2 5 5 1 7 -3 14 2 18 14 3 11 11
20 16 20 6 0 7 5 4 10 -8 13 7 13 23 0 9 -7 9 -7 2 2 -13 15 -13 31 0 23 6 -3
7 1 4 9 -4 10 -1 16 10 16 9 0 13 6 10 13 -2 7 6 25 20 40 14 15 22 27 19 27
-3 0 6 11 21 25 15 14 24 25 20 25 -4 0 0 8 9 18 10 10 14 23 10 27 -5 5 1 3
11 -5 12 -9 17 -10 12 -3 -4 7 -1 23 6 35 7 13 11 27 10 31 -1 5 2 6 8 2 5 -3
10 -1 10 5 0 6 5 8 12 4 7 -4 8 -3 4 4 -8 14 23 64 34 57 5 -3 12 0 16 6 5 8
3 9 -6 4 -8 -5 -11 -3 -8 6 3 8 11 13 17 12 6 -2 10 0 10 5 -3 19 2 33 10 28
5 -3 8 2 7 12 0 10 5 16 14 14 8 -2 12 0 8 3 -11 12 51 96 65 89 9 -5 9 -4 1
6 -9 9 -8 16 5 30 28 31 37 44 44 63 3 9 14 17 23 17 10 0 14 5 10 15 -3 8 1
21 9 29 8 8 15 19 15 25 0 6 5 11 10 11 6 0 10 7 10 15 0 7 6 18 13 22 7 4 18
20 24 36 7 15 21 27 30 27 14 0 15 2 4 9 -10 7 -8 12 10 24 12 9 20 19 17 23
-4 3 1 14 10 24 40 44 43 51 37 80 -4 17 -11 30 -16 30 -6 0 -7 5 -4 10 3 6 2
10 -3 10 -5 0 -17 16 -28 35 -10 19 -22 35 -27 35 -4 0 -6 4 -3 9 4 5 2 11 -3
13 -5 1 -11 10 -13 18 -2 8 -9 21 -16 28 -7 8 -9 19 -4 26 4 6 9 25 11 41 2
17 7 35 12 41 5 7 9 16 7 20 -3 12 13 97 20 109 3 5 7 16 9 25 1 8 5 30 7 48
3 18 9 40 14 50 4 9 7 26 7 37 0 11 4 23 10 27 5 4 0 8 -13 8 -13 0 -20 -4
-17 -10z"/>
<path d="M4314 3010 c0 -11 4 -20 8 -20 4 0 8 -16 8 -36 0 -19 4 -33 8 -30 5
3 9 -1 9 -9 0 -8 -5 -15 -11 -15 -7 0 -7 -3 -1 -8 12 -8 18 -28 18 -59 1 -12
5 -19 9 -17 7 4 12 -32 11 -73 -1 -7 2 -13 6 -13 8 0 9 -5 13 -60 2 -19 10
-40 18 -47 10 -9 11 -12 2 -13 -6 0 -11 -3 -10 -7 3 -13 -24 -63 -34 -63 -4 0
-7 -3 -6 -7 2 -7 -49 -92 -63 -103 -18 -16 -16 -42 4 -61 12 -12 15 -18 7 -14
-11 6 -10 3 3 -12 9 -11 17 -25 17 -31 0 -6 9 -16 20 -22 11 -6 20 -15 20 -21
0 -6 7 -17 15 -26 8 -8 13 -19 10 -24 -4 -5 2 -9 11 -9 10 0 14 -3 11 -7 -4
-3 0 -14 8 -23 9 -10 15 -24 13 -31 -2 -8 3 -13 10 -11 7 1 17 -9 22 -23 5
-14 14 -25 19 -25 6 0 7 -7 4 -17 -4 -11 -3 -14 5 -9 7 4 14 -3 18 -19 3 -14
12 -29 19 -33 8 -4 15 -14 17 -22 2 -8 13 -25 26 -38 13 -13 21 -30 18 -38 -3
-7 0 -16 6 -20 7 -5 8 -2 3 7 -8 12 -6 12 8 0 9 -7 14 -17 11 -22 -3 -5 0 -9
6 -9 6 0 8 -4 5 -10 -3 -5 -2 -10 4 -10 14 0 42 -55 33 -65 -4 -5 -1 -5 6 -1
6 4 12 4 12 -1 0 -4 11 -21 24 -36 14 -16 22 -35 19 -43 -3 -8 -2 -14 3 -12 5
2 9 1 9 -2 0 -3 10 -16 23 -30 12 -13 22 -28 22 -33 0 -4 6 -15 13 -22 29 -33
37 -45 32 -45 -4 0 1 -7 10 -16 9 -9 14 -23 11 -30 -3 -9 1 -11 12 -7 9 3 14
3 10 -2 -4 -4 0 -14 8 -22 8 -8 12 -19 9 -24 -4 -5 0 -9 8 -9 12 0 43 -51 45
-73 0 -5 11 -17 23 -28 12 -10 18 -19 14 -19 -5 0 0 -7 11 -16 10 -8 12 -13 4
-9 -8 4 -5 -2 6 -12 12 -10 25 -28 29 -40 3 -13 13 -23 21 -23 8 0 14 -7 14
-15 0 -8 11 -31 25 -51 14 -20 22 -41 18 -47 -3 -6 -1 -7 5 -3 7 4 17 -3 23
-18 7 -14 16 -23 21 -19 6 3 5 -4 -1 -16 -10 -18 -9 -20 5 -14 10 4 15 2 11
-3 -3 -6 3 -16 13 -24 10 -8 17 -17 15 -21 -3 -4 2 -12 10 -19 8 -7 15 -19 15
-27 0 -8 4 -12 8 -9 5 3 18 -15 30 -39 12 -25 27 -45 32 -45 6 0 9 -4 6 -9 -3
-5 6 -21 19 -35 23 -25 29 -39 26 -58 0 -5 6 -8 16 -8 9 0 13 -3 10 -7 -4 -3
1 -12 11 -20 11 -10 12 -12 2 -8 -9 4 -7 0 4 -9 11 -9 15 -20 10 -28 -4 -7 -4
-10 1 -6 4 4 15 -1 24 -10 9 -10 12 -12 7 -5 -5 8 -5 13 1 13 16 0 113 67 106
73 -6 7 11 11 35 8 7 -1 11 4 10 10 -2 7 6 17 17 23 12 6 27 17 35 24 8 7 35
30 60 52 44 39 68 52 54 28 -4 -7 -3 -8 5 -4 6 4 9 11 6 15 -6 11 54 63 65 56
6 -4 7 1 3 11 -4 11 -3 15 5 10 6 -3 13 3 17 14 3 11 9 20 13 20 4 0 29 20 56
45 27 25 53 42 60 38 6 -4 4 2 -4 12 -8 10 -10 16 -4 12 6 -3 32 18 58 48 27
29 53 52 60 51 6 -2 8 -1 4 1 -17 10 -7 25 13 20 16 -4 18 -3 9 8 -8 10 -5 18
15 33 14 12 27 24 28 29 1 4 5 7 10 5 4 -1 6 4 5 10 -2 7 3 12 10 10 8 -1 11
1 8 6 -3 5 8 22 23 39 15 17 31 39 34 48 4 9 12 13 18 9 8 -4 9 -3 5 4 -4 7
-3 12 3 12 6 0 7 8 4 18 -6 15 -5 16 12 2 10 -8 16 -10 13 -5 -8 14 9 55 22
55 6 0 9 -4 5 -9 -3 -5 -1 -12 4 -15 10 -7 9 19 -2 30 -3 3 -1 12 6 20 29 33
37 44 37 54 0 5 4 10 8 10 5 0 14 11 20 25 10 22 9 27 -6 32 -9 4 -22 12 -29
17 -35 31 -43 36 -43 29 0 -4 -6 -1 -13 7 -7 8 -28 24 -47 34 -19 11 -39 24
-45 28 -30 25 -102 68 -113 68 -7 0 -11 4 -8 9 3 4 -6 13 -19 19 -14 6 -72 43
-130 82 -58 38 -110 70 -115 70 -6 0 -10 3 -10 8 0 4 -23 21 -51 37 -28 17
-57 36 -64 43 -8 6 -17 12 -21 12 -4 0 -22 11 -41 26 -18 14 -33 21 -33 17 0
-4 -4 -3 -8 3 -10 15 -99 74 -111 74 -6 0 -11 4 -11 8 0 5 -12 15 -27 23 -16
8 -33 19 -40 24 -28 23 -40 31 -76 49 -20 11 -37 22 -37 26 0 4 -11 12 -25 18
-14 7 -31 16 -38 22 -18 15 -167 110 -173 110 -3 0 -14 8 -25 18 -10 11 -32
25 -47 33 -15 8 -29 16 -32 19 -15 15 -100 70 -108 70 -5 0 -13 7 -16 16 -3 8
-10 13 -15 9 -6 -3 -13 1 -18 8 -4 8 -23 22 -40 31 -18 9 -33 21 -33 26 0 6
-4 10 -9 10 -15 0 -111 62 -111 71 0 5 -9 9 -20 9 -11 0 -20 4 -20 10 0 5 -15
17 -32 26 -18 9 -35 20 -38 23 -9 11 -180 121 -188 121 -4 0 -8 -9 -8 -20z"/>
<path d="M2239 2953 c-13 -16 -12 -17 4 -4 9 7 17 15 17 17 0 8 -8 3 -21 -13z"/>
<path d="M2135 2911 c-3 -5 -2 -12 3 -15 5 -3 9 1 9 9 0 17 -3 19 -12 6z"/>
<path d="M3973 2895 c0 -8 4 -12 9 -9 5 3 6 10 3 15 -9 13 -12 11 -12 -6z"/>
<path d="M4815 2900 c-3 -5 -1 -10 4 -10 6 0 11 5 11 10 0 6 -2 10 -4 10 -3 0
-8 -4 -11 -10z"/>
<path d="M1973 2825 c0 -8 4 -12 9 -9 5 3 6 10 3 15 -9 13 -12 11 -12 -6z"/>
<path d="M3840 2800 c-9 -6 -10 -10 -3 -10 6 0 15 5 18 10 8 12 4 12 -15 0z"/>
<path d="M1775 2720 c3 -5 8 -10 11 -10 2 0 4 5 4 10 0 6 -5 10 -11 10 -5 0
-7 -4 -4 -10z"/>
<path d="M5235 2711 c-3 -5 -2 -12 3 -15 5 -3 9 1 9 9 0 17 -3 19 -12 6z"/>
<path d="M5196 2702 c-3 -5 1 -9 9 -9 8 0 12 4 9 9 -3 4 -7 8 -9 8 -2 0 -6 -4
-9 -8z"/>
<path d="M3336 2633 c-6 -14 -5 -15 5 -6 7 7 10 15 7 18 -3 3 -9 -2 -12 -12z"/>
<path d="M1550 2619 c0 -5 5 -7 10 -4 6 3 10 8 10 11 0 2 -4 4 -10 4 -5 0 -10
-5 -10 -11z"/>
<path d="M1456 2558 c3 -5 10 -6 15 -3 13 9 11 12 -6 12 -8 0 -12 -4 -9 -9z"/>
<path d="M6073 2285 c0 -8 4 -12 9 -9 5 3 6 10 3 15 -9 13 -12 11 -12 -6z"/>
<path d="M810 2259 c0 -5 5 -7 10 -4 6 3 10 8 10 11 0 2 -4 4 -10 4 -5 0 -10
-5 -10 -11z"/>
<path d="M6156 2222 c-3 -5 1 -9 9 -9 8 0 12 4 9 9 -3 4 -7 8 -9 8 -2 0 -6 -4
-9 -8z"/>
<path d="M2575 2200 c3 -5 8 -10 11 -10 2 0 4 5 4 10 0 6 -5 10 -11 10 -5 0
-7 -4 -4 -10z"/>
<path d="M6255 2180 c-3 -5 -1 -10 4 -10 6 0 11 5 11 10 0 6 -2 10 -4 10 -3 0
-8 -4 -11 -10z"/>
<path d="M3310 2136 c0 -2 8 -10 18 -17 15 -13 16 -12 3 4 -13 16 -21 21 -21
13z"/>
<path d="M3760 2110 c-9 -6 -10 -10 -3 -10 6 0 15 5 18 10 8 12 4 12 -15 0z"/>
<path d="M6570 2026 c0 -2 7 -7 16 -10 8 -3 12 -2 9 4 -6 10 -25 14 -25 6z"/>
<path d="M630 1560 c0 -5 5 -10 11 -10 5 0 7 5 4 10 -3 6 -8 10 -11 10 -2 0
-4 -4 -4 -10z"/>
<path d="M5899 1023 c-13 -17 -13 -17 6 -3 11 8 22 16 24 17 2 2 0 3 -6 3 -6
0 -17 -8 -24 -17z"/>
<path d="M5806 922 c-3 -5 1 -9 9 -9 8 0 12 4 9 9 -3 4 -7 8 -9 8 -2 0 -6 -4
-9 -8z"/>
<path d="M5726 862 c-3 -5 1 -9 9 -9 8 0 12 4 9 9 -3 4 -7 8 -9 8 -2 0 -6 -4
-9 -8z"/>
<path d="M5515 700 c-3 -5 -1 -10 4 -10 6 0 11 5 11 10 0 6 -2 10 -4 10 -3 0
-8 -4 -11 -10z"/>
<path d="M4550 220 c0 -5 5 -10 11 -10 5 0 7 5 4 10 -3 6 -8 10 -11 10 -2 0
-4 -4 -4 -10z"/>
<path d="M4235 139 c-3 -4 2 -6 10 -5 21 3 28 13 10 13 -9 0 -18 -4 -20 -8z"/>
<path d="M4199 113 c-13 -16 -12 -17 4 -4 16 13 21 21 13 21 -2 0 -10 -8 -17
-17z"/>
<path d="M2975 100 c-3 -6 1 -7 9 -4 18 7 21 14 7 14 -6 0 -13 -4 -16 -10z"/>
<path d="M3916 78 c3 -5 10 -6 15 -3 13 9 11 12 -6 12 -8 0 -12 -4 -9 -9z"/>
<path d="M3810 65 c0 -7 30 -13 34 -7 3 4 -4 9 -15 9 -10 1 -19 0 -19 -2z"/>
</g>
</svg>
